# xmcd
#
# Track frame offsets:
#	150
#	10162
#	24245
#	28944
#	51607
#	68352
#	77422
#	97920
#	115420
#	123760
#	141000
#	151877
#	159102
#	182127
#	192957
#	208287
#	218042
#	235340
#	245337
#	267217
#	285765
#
# Disc length: 3945 seconds
#
# Revision: 4
# Processed by: cddbd v1.5.2PL0 Copyright (c) Steve Scherf et al.
# Submitted via: audiograbber 1.83.01
#
DISCID=110f6715
DTITLE=Koerner, Ray and Glover - [Lots More] Blues, Rags and Hollers
DYEAR=1963
DGENRE=Blues
TTITLE0=Black Dog
TTITLE1=Whomp Bom
TTITLE2=Black Betty
TTITLE3=Honey Bee
TTITLE4=Crazy Fool
TTITLE5=Keep Your Hands Off Her
TTITLE6=Duncan And Brady
TTITLE7=Fine Soft Land
TTITLE8=Red Cross Store
TTITLE9=Lady Day
TTITLE10=Freeze To Me, Mama
TTITLE11=Ted Mack Rag
TTITLE12=Fannin Street
TTITLE13=Love Bug
TTITLE14=Can't Get My Rest At Night
TTITLE15=What's The Matter With The Mill
TTITLE16=Fixin' To Die
TTITLE17=My Little Woman
TTITLE18=Leavin' Here Blues
TTITLE19=Southbound Train
TTITLE20=Slappin' On My Black Cat Bone
EXTD=
EXTT0=
EXTT1=
EXTT2=
EXTT3=
EXTT4=
EXTT5=
EXTT6=
EXTT7=
EXTT8=
EXTT9=
EXTT10=
EXTT11=
EXTT12=
EXTT13=
EXTT14=
EXTT15=
EXTT16=
EXTT17=
EXTT18=
EXTT19=
EXTT20=
PLAYORDER=
